<?xml version="1.0" encoding="UTF-8"?>
<!DOCTYPE svg PUBLIC "-//W3C//DTD SVG 1.1//EN" "http://www.w3.org/Graphics/SVG/1.1/DTD/svg11.dtd">
<svg xmlns="http://www.w3.org/2000/svg" version="1.1" width="24px" height="24px" style="shape-rendering:geometricPrecision; text-rendering:geometricPrecision; image-rendering:optimizeQuality; fill-rule:evenodd; clip-rule:evenodd" xmlns:xlink="http://www.w3.org/1999/xlink">
<g><path style="opacity:0.307" fill="#f76546" d="M 16.5,0.5 C 16.5,0.833333 16.5,1.16667 16.5,1.5C 16.5,1.83333 16.5,2.16667 16.5,2.5C 15.1667,3.5 13.8333,4.5 12.5,5.5C 12.1667,5.5 11.8333,5.5 11.5,5.5C 11.5,5.16667 11.5,4.83333 11.5,4.5C 12.1667,3.5 12.8333,2.5 13.5,1.5C 14.609,1.44312 15.609,1.10978 16.5,0.5 Z"/></g>
<g><path style="opacity:0.563" fill="#fa6344" d="M 14.5,-0.5 C 15.8333,-0.5 17.1667,-0.5 18.5,-0.5C 19.8333,1.5 21.5,3.16667 23.5,4.5C 23.5,5.83333 23.5,7.16667 23.5,8.5C 22.5,9.16667 21.5,9.83333 20.5,10.5C 19.5291,9.03791 19.8624,7.70458 21.5,6.5C 22.8333,6.16667 22.8333,5.83333 21.5,5.5C 20.3684,4.6457 19.035,4.6457 17.5,5.5C 17.4431,4.39105 17.1098,3.39105 16.5,2.5C 16.5,2.16667 16.5,1.83333 16.5,1.5C 17.8333,1.16667 17.8333,0.833333 16.5,0.5C 15.609,1.10978 14.609,1.44312 13.5,1.5C 13.8333,0.833333 14.1667,0.166667 14.5,-0.5 Z"/></g>
<g><path style="opacity:0.625" fill="#f86245" d="M 16.5,2.5 C 17.1098,3.39105 17.4431,4.39105 17.5,5.5C 16.1667,5.83333 16.1667,6.16667 17.5,6.5C 17.5,6.83333 17.5,7.16667 17.5,7.5C 17.5,8.16667 17.5,8.83333 17.5,9.5C 16.8333,9.5 16.5,9.16667 16.5,8.5C 16.5,7.83333 16.1667,7.5 15.5,7.5C 15.5,6.83333 15.1667,6.5 14.5,6.5C 13.8333,6.5 13.1667,6.5 12.5,6.5C 12.5,6.16667 12.5,5.83333 12.5,5.5C 13.8333,4.5 15.1667,3.5 16.5,2.5 Z"/></g>
<g><path style="opacity:0.498" fill="#f86146" d="M 21.5,5.5 C 21.5,5.83333 21.5,6.16667 21.5,6.5C 19.8624,7.70458 19.5291,9.03791 20.5,10.5C 19.8333,10.8333 19.1667,11.1667 18.5,11.5C 18.1667,11.5 17.8333,11.5 17.5,11.5C 17.5,11.1667 17.5,10.8333 17.5,10.5C 17.5,10.1667 17.5,9.83333 17.5,9.5C 17.5,8.83333 17.5,8.16667 17.5,7.5C 18.8333,7.16667 18.8333,6.83333 17.5,6.5C 17.5,6.16667 17.5,5.83333 17.5,5.5C 19.035,4.6457 20.3684,4.6457 21.5,5.5 Z"/></g>
<g><path style="opacity:0.61" fill="#f86245" d="M 11.5,4.5 C 11.5,4.83333 11.5,5.16667 11.5,5.5C 11.5,5.83333 11.5,6.16667 11.5,6.5C 10.1667,6.83333 10.1667,7.16667 11.5,7.5C 12.4916,7.32842 13.1583,7.66175 13.5,8.5C 12.8141,9.84836 11.8141,11.015 10.5,12C 11.056,12.3826 11.3893,12.8826 11.5,13.5C 11.1667,13.5 10.8333,13.5 10.5,13.5C 9.27187,12.6935 8.27187,11.6935 7.5,10.5C 6.47498,10.1034 6.30831,9.43677 7,8.5C 8.37121,6.95862 9.87121,5.62529 11.5,4.5 Z"/></g>
<g><path style="opacity:0.376" fill="#fa6144" d="M 11.5,7.5 C 11.5,7.16667 11.5,6.83333 11.5,6.5C 11.8333,6.5 12.1667,6.5 12.5,6.5C 13.1667,6.5 13.8333,6.5 14.5,6.5C 15.1667,6.5 15.5,6.83333 15.5,7.5C 16.1667,7.5 16.5,7.83333 16.5,8.5C 16.5,9.16667 16.8333,9.5 17.5,9.5C 17.5,9.83333 17.5,10.1667 17.5,10.5C 16.8333,10.5 16.5,10.8333 16.5,11.5C 15.1667,10.8333 14.1667,9.83333 13.5,8.5C 13.1583,7.66175 12.4916,7.32842 11.5,7.5 Z"/></g>
<g><path style="opacity:0.502" fill="#f96245" d="M 16.5,11.5 C 16.8333,11.5 17.1667,11.5 17.5,11.5C 17.8333,11.5 18.1667,11.5 18.5,11.5C 16.9644,14.7854 14.6311,16.1187 11.5,15.5C 11.5,14.8333 11.8333,14.5 12.5,14.5C 14.4044,14.2624 15.7377,13.2624 16.5,11.5 Z"/></g>
<g><path style="opacity:0.521" fill="#f76145" d="M 10.5,13.5 C 10.8333,13.5 11.1667,13.5 11.5,13.5C 12.1667,13.5 12.5,13.8333 12.5,14.5C 11.8333,14.5 11.5,14.8333 11.5,15.5C 10.078,16.925 8.4113,17.925 6.5,18.5C 7.59809,17.603 7.59809,16.7697 6.5,16C 8.11069,15.7098 9.44402,14.8765 10.5,13.5 Z"/></g>
<g><path style="opacity:0.812" fill="#f76345" d="M 7.5,10.5 C 8.27187,11.6935 9.27187,12.6935 10.5,13.5C 9.44402,14.8765 8.11069,15.7098 6.5,16C 7.59809,16.7697 7.59809,17.603 6.5,18.5C 6.67158,19.4916 6.33825,20.1583 5.5,20.5C 4.32855,19.6554 2.99522,18.9887 1.5,18.5C 3.90918,16.0976 5.90918,13.4309 7.5,10.5 Z"/></g>
<g><path style="opacity:0.626" fill="#f86245" d="M 1.5,18.5 C 2.99522,18.9887 4.32855,19.6554 5.5,20.5C 4.59872,21.2905 3.93205,22.2905 3.5,23.5C 2.16667,23.5 0.833333,23.5 -0.5,23.5C -0.5,22.1667 -0.5,20.8333 -0.5,19.5C 0.166667,19.1667 0.833333,18.8333 1.5,18.5 Z"/></g>
</svg>
